<?xml version="1.0" encoding="utf-8"?>
<!-- Generator: Adobe Illustrator 16.0.0, SVG Export Plug-In . SVG Version: 6.00 Build 0)  -->
<!DOCTYPE svg PUBLIC "-//W3C//DTD SVG 1.1//EN" "http://www.w3.org/Graphics/SVG/1.1/DTD/svg11.dtd">
<svg version="1.1" id="Layer_1" xmlns="http://www.w3.org/2000/svg" xmlns:xlink="http://www.w3.org/1999/xlink" x="0px" y="0px"
	 width="143.167px" height="33.833px" viewBox="-14.408 -1.5 143.167 33.833" enable-background="new -14.408 -1.5 143.167 33.833"
	 xml:space="preserve">
<g id="SKAI" style="isolation:isolate"><g style="isolation:isolate"><path d="M635.43,389.26a3.38,3.38,0,0,0-1.32-2.87,17.17,17.17,0,0,0-4.75-2.11,33.39,33.39,0,0,1-5.42-2.19q-5.46-2.94-5.45-7.93a7.66,7.66,0,0,1,1.46-4.62,9.47,9.47,0,0,1,4.19-3.18,15.86,15.86,0,0,1,6.15-1.14,14.3,14.3,0,0,1,6.1,1.24,9.8,9.8,0,0,1,4.17,3.5,9.19,9.19,0,0,1,1.48,5.15h-6.59a4.29,4.29,0,0,0-1.39-3.42,5.68,5.68,0,0,0-3.88-1.22,6.07,6.07,0,0,0-3.76,1,3.21,3.21,0,0,0-1.34,2.69,3.08,3.08,0,0,0,1.57,2.62,18.11,18.11,0,0,0,4.62,2q5.63,1.68,8.2,4.19a8.37,8.37,0,0,1,2.57,6.24,7.72,7.72,0,0,1-3.14,6.52,13.81,13.81,0,0,1-8.46,2.36,16.33,16.33,0,0,1-6.72-1.35,10.63,10.63,0,0,1-4.63-3.7,9.52,9.52,0,0,1-1.59-5.45h6.61q0,5.3,6.33,5.29a6.21,6.21,0,0,0,3.67-.95A3.12,3.12,0,0,0,635.43,389.26Z" transform="translate(-617.5 -365.22)"/></g><g style="isolation:isolate"><path d="M658.77,384.82l-3.43,3.69v9.14h-6.59v-32h6.59v14.5l2.9-4,8.16-10.52h8.1l-11.36,14.22,11.69,17.77H667Z" transform="translate(-617.5 -365.22)" style="fill:#298d65"/><path d="M697.63,391.06H686.07l-2.2,6.59h-7l11.91-32h6.11l12,32h-7Zm-9.78-5.34h8l-4-12Z" transform="translate(-617.5 -365.22)" style="fill:#298d65"/><path d="M719.1,397.65h-6.59v-32h6.59Z" transform="translate(-617.5 -365.22)" style="fill:#298d65"/></g></g></svg>
